<svg xmlns="http://www.w3.org/2000/svg" viewBox="0 0 156.48 156.48"><defs><style>.cls-1{fill:#00d2b5;}.cls-2{fill:#fff;}</style></defs><g id="Layer_2" data-name="Layer 2"><g id="Layer_1-2" data-name="Layer 1"><circle class="cls-1" cx="78.24" cy="78.24" r="78.24"/><path class="cls-2" d="M30,84.76A47.37,47.37,0,0,1,76.39,32V19.23a.91.91,0,0,1,1.47-.65L104,37.82a.81.81,0,0,1,0,1.29L77.88,58.35a.91.91,0,0,1-1.46-.66V45a34.29,34.29,0,0,0-31,21,33.7,33.7,0,0,0-2.65,15,34.19,34.19,0,0,0,7.47,19.52A6.54,6.54,0,1,1,40,108.6,46.82,46.82,0,0,1,30,84.76Zm75.61-24.44A33.67,33.67,0,0,1,113,79.84a34.34,34.34,0,0,1-33.66,36V103.14a.91.91,0,0,0-1.46-.65L51.72,121.73a.81.81,0,0,0,0,1.29l26.16,19.24a.91.91,0,0,0,1.47-.66V128.88a47.37,47.37,0,0,0,46.44-52.81,46.39,46.39,0,0,0-10-23.83,6.53,6.53,0,1,0-10.25,8.08Z"/></g></g></svg>