<svg xmlns="http://www.w3.org/2000/svg" viewBox="0 0 156.48 156.48"><defs><style>.cls-1{fill:#00d2b5;}.cls-2{fill:#fff;}</style></defs><g id="Layer_2" data-name="Layer 2"><g id="Layer_1-2" data-name="Layer 1"><circle class="cls-1" cx="78.24" cy="78.24" r="78.24"/><path class="cls-2" d="M79.58,24.65A53.73,53.73,0,1,0,133.3,78.37,53.78,53.78,0,0,0,79.58,24.65Zm0,101.64a47.78,47.78,0,0,1-33.77-14,48.38,48.38,0,0,1-8.69-11.76,47.9,47.9,0,0,1,75-57.37,48.26,48.26,0,0,1,10.73,14.52,47.9,47.9,0,0,1-43.23,68.57Z"/><circle class="cls-2" cx="62.03" cy="66.39" r="5.81"/><circle class="cls-2" cx="97.97" cy="66.39" r="5.81"/><path class="cls-2" d="M79.48,108.14a33.74,33.74,0,0,0,28.17-15.29l-4.88-3.15a27.6,27.6,0,0,1-46.38,0l-4.88,3.15a33.73,33.73,0,0,0,24.2,15.07A31.9,31.9,0,0,0,79.48,108.14Z"/></g></g></svg>