<svg xmlns="http://www.w3.org/2000/svg" viewBox="0 0 156.48 156.48"><defs><style>.cls-1{fill:#00d2b5;}.cls-2{fill:#fff;}</style></defs><g id="Layer_2" data-name="Layer 2"><g id="Layer_1-2" data-name="Layer 1"><circle class="cls-1" cx="78.24" cy="78.24" r="78.24"/><path class="cls-2" d="M81.94,71.92a8.85,8.85,0,1,0,8.85,8.84A8.84,8.84,0,0,0,81.94,71.92Z"/><path class="cls-2" d="M137.18,61.93A57.06,57.06,0,0,0,34.76,47,14.36,14.36,0,0,0,33,52.72V32.58H25.4V63H55.85V55.42H38.65a50.16,50.16,0,0,1,43.85-27,49.86,49.86,0,1,1,0,99.72,50.11,50.11,0,0,1-47.43-35.7l-7.31,2.17A57.1,57.1,0,1,0,137.18,61.93Z"/></g></g></svg>