<svg xmlns="http://www.w3.org/2000/svg" viewBox="0 0 156.48 156.48"><defs><style>.cls-1{fill:#00d2b5;}.cls-2{fill:none;stroke:#fff;stroke-miterlimit:10;stroke-width:6px;}</style></defs><g id="Layer_2" data-name="Layer 2"><g id="Layer_1-2" data-name="Layer 1"><circle class="cls-1" cx="78.24" cy="78.24" r="78.24"/><path class="cls-2" d="M147.4,90.27a5.5,5.5,0,0,0-5.5-5.5H125.72a24.61,24.61,0,0,0-24.61,24.49c0,7.06-5,13.32-12,14.2a13.81,13.81,0,0,1-15.55-13.67V97.47a27.56,27.56,0,0,0,22-27v-14A3.56,3.56,0,0,0,92,52.91H85.2V35.64a5.31,5.31,0,0,0-4.65-5.37,5.16,5.16,0,0,0-5.68,5.15V52.91H61.24V35.64a5.31,5.31,0,0,0-4.67-5.37,5.16,5.16,0,0,0-5.67,5.15V52.91H44a3.56,3.56,0,0,0-3.58,3.58v14a27.56,27.56,0,0,0,22,27v11.68c0,13.43,10.42,24.9,23.84,25.4a24.85,24.85,0,0,0,25.77-24.78v-.2A13.78,13.78,0,0,1,125.9,95.79h16a5.54,5.54,0,0,0,5.52-5.52Z"/></g></g></svg>