<svg xmlns="http://www.w3.org/2000/svg" viewBox="0 0 156.48 156.48"><defs><style>.cls-1{fill:#00d2b5;}.cls-2{fill:#fff;}</style></defs><g id="Layer_2" data-name="Layer 2"><g id="Layer_1-2" data-name="Layer 1"><circle class="cls-1" cx="78.24" cy="78.24" r="78.24"/><path class="cls-2" d="M127.54,120.62,120.42,57a2.88,2.88,0,0,0-2.86-2.56H99.79V49.36a21.43,21.43,0,0,0-42.85,0v5.09H39.16A2.9,2.9,0,0,0,36.29,57l-7.1,63.6a2.89,2.89,0,0,0,2.87,3.2h92.61a2.89,2.89,0,0,0,2.87-3.2ZM62.7,49.36a15.66,15.66,0,0,1,31.32,0v5.09H62.7ZM35.28,118.05l6.46-57.83h15.2v6.26a8.65,8.65,0,1,0,5.76,0V60.22H94v6.26a8.65,8.65,0,1,0,5.77,0V60.22H115l6.47,57.83Zm24.54-46.3a2.88,2.88,0,1,1-2.88,2.88A2.88,2.88,0,0,1,59.82,71.75Zm37.09,0A2.88,2.88,0,1,1,94,74.63,2.88,2.88,0,0,1,96.91,71.75Z"/></g></g></svg>