<svg xmlns="http://www.w3.org/2000/svg" viewBox="0 0 156.48 156.48"><defs><style>.cls-1{fill:#00d2b5;}.cls-2,.cls-3{fill:#fff;}.cls-3{stroke:#fff;stroke-miterlimit:10;stroke-width:0.5px;}</style></defs><g id="Layer_2" data-name="Layer 2"><g id="Layer_1-2" data-name="Layer 1"><circle class="cls-1" cx="78.24" cy="78.24" r="78.24"/><path class="cls-2" d="M109.82,107.9a1.94,1.94,0,1,0,2,1.94A1.94,1.94,0,0,0,109.82,107.9Z"/><path class="cls-3" d="M115.65,34.33V31a5.83,5.83,0,0,0-5.83-5.83H47.64A5.83,5.83,0,0,0,41.81,31v3.38C29.13,57.74,29,57.05,29,58.15h0V62A9.66,9.66,0,0,0,34,70.32v52.35A1.94,1.94,0,0,0,36,124.61h85.5a1.94,1.94,0,0,0,1.94-1.94V70.32A9.77,9.77,0,0,0,128.48,62V58.15h0C128.48,57,128.2,57.51,115.65,34.33Zm7.6,21.88h-12l-6.47-19.43h7.81Zm-27,3.88h11.66V62a5.83,5.83,0,0,1-11.66,0Zm-.3-3.88L92.68,36.78h8l6.48,19.43ZM45.7,31A1.94,1.94,0,0,1,47.64,29h62.18a2,2,0,0,1,2,1.95v1.94H45.7ZM92.33,60.09V62a5.83,5.83,0,1,1-11.66,0V60.09ZM80.67,56.21V36.78h8.07L92,56.21Zm-15.19,0,3.24-19.43h8.07V56.21Zm11.31,3.88V62a5.83,5.83,0,0,1-11.66,0V60.09ZM50.34,56.21l6.47-19.43h8L61.54,56.21Zm10.9,3.88V62a5.83,5.83,0,0,1-11.66,0V60.09ZM44.9,36.78h7.82L46.24,56.21h-12ZM32.87,62V60.09H45.7V62c0,3.05-3.06,5.83-6.42,5.83a6.55,6.55,0,0,1-2.54-.54A6,6,0,0,1,32.87,62ZM69,120.72H49.58V104H69Zm0-20.6H49.58V83.41H69Zm50.53,20.6H72.9V81.47A1.94,1.94,0,0,0,71,79.53H47.64a1.94,1.94,0,0,0-1.94,1.94v39.25H37.92V71.66a10.35,10.35,0,0,0,1.36.09A10.71,10.71,0,0,0,46.38,69a10.4,10.4,0,0,0,1.16-1.24,9.71,9.71,0,0,0,15.64.13,9.72,9.72,0,0,0,15.55,0,9.72,9.72,0,0,0,15.55,0,9.71,9.71,0,0,0,15.64-.13A9.73,9.73,0,0,0,111.09,69a10.69,10.69,0,0,0,7.09,2.78,10.35,10.35,0,0,0,1.36-.09Zm5-58.68a6.06,6.06,0,0,1-4,5.36,6.48,6.48,0,0,1-2.39.47c-3.36,0-6.41-2.78-6.41-5.83V60.09h12.82Z"/><path class="cls-2" d="M113.71,100.12h-1.94V81.47a1.94,1.94,0,0,0-2-1.94H86.5a1.94,1.94,0,0,0-1.94,1.94v18.65H82.62a1.95,1.95,0,1,0,0,3.89h31.09a1.95,1.95,0,0,0,0-3.89Zm-5.83,0H88.45V83.41h19.43Z"/><path class="cls-2" d="M102.05,107.9H86.5a1.94,1.94,0,0,0,0,3.88h15.55a1.94,1.94,0,0,0,0-3.88Z"/></g></g></svg>